<svg width="20" height="22" viewBox="0 0 20 22" fill="none" xmlns="http://www.w3.org/2000/svg">
<path d="M5.84308 2.80211C7.8718 1.6007 8.8862 1 10 1C11.1138 1 12.1282 1.6007 14.1569 2.80211L14.8431 3.20846C16.8718 4.40987 17.8862 5.01057 18.4431 6C19 6.98943 19 8.19084 19 10.5937V11.4063C19 13.8092 19 15.0106 18.4431 16C17.8862 16.9894 16.8718 17.5901 14.8431 18.7915L14.1569 19.1979C12.1282 20.3993 11.1138 21 10 21C8.8862 21 7.8718 20.3993 5.84308 19.1979L5.15692 18.7915C3.1282 17.5901 2.11384 16.9894 1.55692 16C1 15.0106 1 13.8092 1 11.4063V10.5937C1 8.19084 1 6.98943 1.55692 6C2.11384 5.01057 3.1282 4.40987 5.15692 3.20846L5.84308 2.80211Z" stroke="url(#paint0_linear_141_4)" stroke-width="2"/>
<defs>
<linearGradient id="paint0_linear_141_4" x1="1" y1="1" x2="19" y2="21" gradientUnits="userSpaceOnUse">
<stop stop-color="#654DFF"/>
<stop offset="1" stop-color="#C64EFF"/>
</linearGradient>
</defs>
</svg>
