<svg width="42" height="42" viewBox="0 0 42 42" fill="none" xmlns="http://www.w3.org/2000/svg">
<mask id="mask0_137_4" style="mask-type:alpha" maskUnits="userSpaceOnUse" x="8" y="8" width="24" height="24">
<path d="M15.8431 11.8021C17.8718 10.6007 18.8862 10 20 10C21.1138 10 22.1282 10.6007 24.1569 11.8021L24.8431 12.2085C26.8718 13.4099 27.8862 14.0106 28.4431 15C29 15.9894 29 17.1908 29 19.5937V20.4063C29 22.8092 29 24.0106 28.4431 25C27.8862 25.9894 26.8718 26.5901 24.8431 27.7915L24.1569 28.1979C22.1282 29.3993 21.1138 30 20 30C18.8862 30 17.8718 29.3993 15.8431 28.1979L15.1569 27.7915C13.1282 26.5901 12.1138 25.9894 11.5569 25C11 24.0106 11 22.8092 11 20.4063V19.5937C11 17.1908 11 15.9894 11.5569 15C12.1138 14.0106 13.1282 13.4099 15.1569 12.2085L15.8431 11.8021Z" stroke="#1C274C" stroke-width="2.5"/>
</mask>
<g mask="url(#mask0_137_4)">
<path d="M28 0H14C6.26801 0 0 6.26801 0 14V28C0 35.732 6.26801 42 14 42H28C35.732 42 42 35.732 42 28V14C42 6.26801 35.732 0 28 0Z" fill="url(#paint0_linear_137_4)"/>
</g>
<defs>
<linearGradient id="paint0_linear_137_4" x1="-0.412" y1="-0.412" x2="42.412" y2="42.412" gradientUnits="userSpaceOnUse">
<stop stop-color="#5A56FD"/>
<stop offset="1" stop-color="#AD3EFF"/>
</linearGradient>
</defs>
</svg>
